<?xml version="1.0" encoding="utf-8"?>
<!-- Generator: Adobe Adobe Illustrator 24.2.0, SVG Export Plug-In . SVG Version: 6.00 Build 0)  -->
<svg version="1.1" xmlns="http://www.w3.org/2000/svg" xmlns:xlink="http://www.w3.org/1999/xlink" x="0px" y="0px"
	 viewBox="0 0 615 296" style="enable-background:new 0 0 615 296;" xml:space="preserve">
<style type="text/css">
	.st0{fill-rule:evenodd;clip-rule:evenodd;fill:#0D4399;}
	.st1{fill-rule:evenodd;clip-rule:evenodd;fill:#FCA102;}
</style>
<g id="Layer_8">
	<g>
		<path class="st0" d="M415.05,157.68c5.16,0,7.61-2.58,7.61-5.6c0-6.9-11.16-4.29-11.16-8.3c0-1.43,1.18-2.56,4.09-2.56
			c1.64,0,3.5,0.48,5.19,1.48l1.1-2.72c-1.64-1.08-4.01-1.67-6.27-1.67c-5.16,0-7.58,2.58-7.58,5.63c0,6.98,11.19,4.33,11.19,8.39
			c0,1.4-1.24,2.45-4.17,2.45c-2.31,0-4.71-0.86-6.21-2.07l-1.21,2.72C409.19,156.77,412.12,157.68,415.05,157.68L415.05,157.68z
			 M434.93,157.68c5.84,0,10.14-4.09,10.14-9.68c0-5.59-4.3-9.68-10.14-9.68c-5.84,0-10.14,4.11-10.14,9.68
			C424.79,153.57,429.09,157.68,434.93,157.68L434.93,157.68z M434.93,154.62c-3.79,0-6.62-2.77-6.62-6.62
			c0-3.85,2.82-6.62,6.62-6.62c3.79,0,6.62,2.77,6.62,6.62C441.54,151.85,438.72,154.62,434.93,154.62L434.93,154.62z
			 M448.78,157.41h13.34v-2.96h-9.84v-15.87h-3.5V157.41L448.78,157.41z M479.12,157.41h3.66l-8.5-18.83h-3.44l-8.47,18.83h3.6
			l1.86-4.36h9.41L479.12,157.41L479.12,157.41z M469,150.31l3.52-8.23l3.55,8.23H469L469,150.31z M501.25,157.41l-4.33-6.19
			c2.55-1,4.01-3.09,4.01-5.94c0-4.17-3.07-6.7-8.01-6.7h-7.75v18.83h3.5v-5.49h4.25c0.24,0,0.48,0,0.73-0.03l3.85,5.51H501.25
			L501.25,157.41z M497.4,145.28c0,2.37-1.59,3.77-4.65,3.77h-4.09v-7.5h4.09C495.82,141.55,497.4,142.92,497.4,145.28z"/>
		<path class="st0" d="M423.31,126.21h3.66l-8.5-18.83h-3.44l-8.47,18.83h3.6l1.86-4.36h9.41L423.31,126.21L423.31,126.21z
			 M413.2,119.11l3.52-8.23l3.55,8.23H413.2L413.2,119.11z M449.98,126.21l-0.03-18.83h-2.88l-7.35,12.48l-7.49-12.48h-2.88v18.83
			h3.33v-12.32l6.19,10.17h1.56l6.19-10.33l0.03,12.48H449.98L449.98,126.21z M458.54,123.28v-5.19h9.09v-2.88h-9.09v-4.89h10.25
			v-2.93h-13.74v18.83h14.12v-2.93H458.54L458.54,123.28z M489.15,126.21l-4.33-6.19c2.56-1,4.01-3.09,4.01-5.94
			c0-4.17-3.07-6.7-8.01-6.7h-7.75v18.83h3.5v-5.49h4.25c0.24,0,0.48,0,0.73-0.03l3.85,5.51H489.15L489.15,126.21z M485.3,114.08
			c0,2.37-1.59,3.77-4.65,3.77h-4.09v-7.5h4.09C483.71,110.34,485.3,111.71,485.3,114.08L485.3,114.08z M492.72,126.21h3.5v-18.83
			h-3.5V126.21L492.72,126.21z M510.02,126.48c3.09,0,5.73-1.1,7.48-3.15l-2.26-2.15c-1.37,1.51-3.07,2.23-5.03,2.23
			c-3.9,0-6.72-2.74-6.72-6.62c0-3.87,2.82-6.62,6.72-6.62c1.96,0,3.66,0.73,5.03,2.21l2.26-2.12c-1.75-2.04-4.38-3.15-7.45-3.15
			c-5.78,0-10.09,4.06-10.09,9.68S504.26,126.48,510.02,126.48L510.02,126.48z M534.55,126.21h3.66l-8.5-18.83h-3.44l-8.47,18.83
			h3.6l1.86-4.36h9.41L534.55,126.21L534.55,126.21z M524.43,119.11l3.52-8.23l3.55,8.23H524.43L524.43,119.11z M553.86,107.38
			v12.75l-10.38-12.75h-2.88v18.83h3.47v-12.75l10.38,12.75h2.88v-18.83H553.86z"/>
		<path class="st0" d="M423.31,188.62h3.66l-8.5-18.83h-3.44l-8.47,18.83h3.6l1.86-4.36h9.41L423.31,188.62L423.31,188.62z
			 M413.2,181.52l3.52-8.23l3.55,8.23H413.2L413.2,181.52z M429.36,188.62h8.23c6.11,0,10.27-3.77,10.27-9.41
			c0-5.65-4.17-9.41-10.27-9.41h-8.23V188.62L429.36,188.62z M432.86,185.66v-12.91h4.57c4.2,0,6.91,2.56,6.91,6.46
			c0,3.9-2.72,6.45-6.91,6.45H432.86L432.86,185.66z M464.7,169.79l-6.32,14.52l-6.27-14.52h-3.79l8.23,18.83h3.44l8.2-18.83H464.7
			L464.7,169.79z M483.69,188.62l-1.88-4.36h-9.41l-1.86,4.36h-3.6l8.47-18.83h3.44l8.5,18.83H483.69L483.69,188.62z M473.57,181.52
			h7.07l-3.55-8.23L473.57,181.52L473.57,181.52z M503,169.79v12.75l-10.38-12.75h-2.88v18.83h3.47v-12.75l10.38,12.75h2.88v-18.83
			H503L503,169.79z M515.34,188.62h3.5v-15.87h6.24v-2.96H509.1v2.96h6.24V188.62L515.34,188.62z M540.87,188.62l-1.88-4.36h-9.41
			l-1.86,4.36h-3.6l8.47-18.83h3.44l8.5,18.83H540.87L540.87,188.62z M530.75,181.52h7.07l-3.55-8.23L530.75,181.52L530.75,181.52z
			 M559.5,184.85c-1.21,0.7-2.53,0.97-3.87,0.97c-3.98,0-6.8-2.8-6.8-6.62c0-3.9,2.82-6.62,6.83-6.62c2.02,0,3.71,0.67,5.19,2.15
			l2.21-2.15c-1.77-2.02-4.41-3.07-7.56-3.07c-5.89,0-10.19,4.06-10.19,9.68c0,5.62,4.3,9.68,10.14,9.68c2.66,0,5.41-0.81,7.37-2.39
			v-7.5h-3.31V184.85L559.5,184.85z M570.91,185.69v-5.19H580v-2.88h-9.09v-4.89h10.25v-2.93h-13.74v18.83h14.12v-2.93H570.91z"/>
		<path class="st0" d="M178.05,188.89h19.86l-36.56-81.77h-18.69l-36.45,81.77h19.39l7.24-17.52h37.97L178.05,188.89L178.05,188.89z
			 M138.91,156.99l12.97-31.31l12.97,31.31H138.91L138.91,156.99z M233.31,190.29c23.36,0,34.7-11.68,34.7-25.33
			c0-30.02-47.55-19.61-47.55-34.7c0-5.16,4.32-9.37,15.54-9.37c7.24,0,15.07,2.1,22.66,6.43l5.84-14.37
			c-7.59-4.79-18.11-7.24-28.39-7.24c-23.25,0-34.46,11.57-34.46,25.49c0,30.37,47.55,19.86,47.55,35.16c0,5-4.56,8.74-15.77,8.74
			c-9.81,0-20.09-3.5-26.99-8.51l-6.43,14.23C207.25,186.43,220.34,190.29,233.31,190.29L233.31,190.29z M342.06,188.89h19.86
			l-36.56-81.77h-18.69l-36.45,81.77h19.39l7.24-17.52h37.97L342.06,188.89L342.06,188.89z M302.93,156.99l12.97-31.31l12.97,31.31
			H302.93z"/>
		<path class="st1" d="M187.59,214.51l17.76,22.41l-10.55-26.58C192.48,211.86,190.07,213.25,187.59,214.51L187.59,214.51z
			 M200.74,206.01c3.86-3.12,7.4-6.61,10.57-10.43l30.1,41.11L200.74,206.01L200.74,206.01z M211.99,101.24l30.68-40.67l-41.11,30.1
			C205.37,93.83,208.87,97.38,211.99,101.24L211.99,101.24z M194.8,85.66c-2.32-1.52-4.73-2.92-7.21-4.17l17.76-22.41L194.8,85.66
			L194.8,85.66z M180.86,78.49l6.21-50.7l-20.62,46.74C171.38,75.37,176.21,76.69,180.86,78.49L180.86,78.49z M158.18,73.61
			l-4.2-28.44l-4.2,28.44c1.4-0.08,2.8-0.12,4.2-0.12C155.38,73.49,156.78,73.53,158.18,73.61L158.18,73.61z M142.45,74.38
			l-19.91-46.89l5.54,50.63C132.74,76.4,137.55,75.14,142.45,74.38L142.45,74.38z M120.37,81.49l-17.76-22.41l10.54,26.58
			C115.48,84.14,117.89,82.74,120.37,81.49L120.37,81.49z M107.22,89.99c-3.86,3.12-7.4,6.61-10.57,10.43l-30.1-41.11L107.22,89.99
			L107.22,89.99z M91.64,107.18L65.06,96.63l22.41,17.76C88.72,111.91,90.12,109.5,91.64,107.18L91.64,107.18z M84.47,121.11
			l-50.7-6.21l46.74,20.62C81.35,130.6,82.67,125.77,84.47,121.11L84.47,121.11z M79.59,143.8L51.16,148l28.44,4.2
			c-0.08-1.4-0.12-2.8-0.12-4.2C79.47,146.6,79.51,145.2,79.59,143.8L79.59,143.8z M80.36,159.53l-46.89,19.91l50.63-5.54
			C82.38,169.24,81.13,164.43,80.36,159.53L80.36,159.53z M87.47,181.61l-22.41,17.76l26.58-10.54
			C90.12,186.5,88.72,184.09,87.47,181.61L87.47,181.61z M95.97,194.76c3.12,3.86,6.61,7.4,10.43,10.57l-41.11,30.1L95.97,194.76
			L95.97,194.76z M113.16,210.34l-10.55,26.58l17.76-22.41C117.89,213.26,115.48,211.86,113.16,210.34L113.16,210.34z M127.1,217.51
			l-6.21,50.7l20.62-46.74C136.58,220.63,131.75,219.31,127.1,217.51L127.1,217.51z M149.78,222.39l4.2,28.43l4.2-28.43
			c-1.4,0.08-2.8,0.12-4.2,0.12C152.58,222.51,151.18,222.47,149.78,222.39L149.78,222.39z M165.51,221.62l19.91,46.89l-5.54-50.63
			C175.22,219.6,170.41,220.85,165.51,221.62z"/>
		<rect x="382.14" y="87.83" class="st0" width="3.93" height="129.61"/>
	</g>
</g>
<g id="Layer_2">
</g>
</svg>
